<?xml version="1.0" encoding="utf-8"?>
<!-- Generator: Adobe Illustrator 23.0.1, SVG Export Plug-In . SVG Version: 6.00 Build 0)  -->
<svg version="1.1" id="Calque_1" xmlns="http://www.w3.org/2000/svg" xmlns:xlink="http://www.w3.org/1999/xlink" x="0px" y="0px"
  viewBox="0 0 235 189" style="enable-background:new 0 0 235 189;" xml:space="preserve">
  <style type="text/css">
   .st0{fill:none;stroke:url(#left_1_);stroke-width:10;}
   .st1{fill:none;stroke:url(#right_1_);stroke-width:10;}
 </style>
 <linearGradient id="left_1_" gradientUnits="userSpaceOnUse" x1="152.4062" y1="262.813" x2="35.5773" y2="146.6037" gradientTransform="matrix(1 0 0 1 0 -110)">
   <stop offset="0%" stop-color="#4ADEDE">
    <animate attributeName="stop-color" values="#4ADEDE; #2EBCE7; #1CA7EC; #4ADEDE" dur="1.5s" repeatCount="indefinite"></animate>
  </stop>

  <stop offset="100%" stop-color="#000000">
    <animate attributeName="stop-color" values="#1CA7EC; #2EBCE7; #4ADEDE; #1CA7EC" dur="1.5s" repeatCount="indefinite"></animate>
  </stop>
</linearGradient>
<path id="left" class="st0" d="M179.3,120.1L141,158.6c-13,13.1-34.2,13.2-47.3,0.1l-85-84.5c-1.4-1.4-1.4-3.6,0-4.9L68.2,9.6
	c1.4-1.4,3.6-1.4,4.9,0l106.2,105.7C180.7,116.6,180.7,118.8,179.3,120.1z"/>
  <linearGradient id="right_1_" gradientUnits="userSpaceOnUse" x1="83.2652" y1="263.2624" x2="198.5264" y2="144.737" gradientTransform="matrix(1 0 0 1 0 -110)">
      <stop offset="0%" stop-color="#4ADEDE">
    <animate attributeName="stop-color" values="#4ADEDE; #2EBCE7; #1CA7EC; #4ADEDE" dur="1.5s" repeatCount="indefinite"></animate>
  </stop>

  <stop offset="100%" stop-color="#4ADEDE">
    <animate attributeName="stop-color" values="#1CA7EC; #2EBCE7; #4ADEDE; #1CA7EC" dur="1.5s" repeatCount="indefinite"></animate>
  </stop>
 </linearGradient>
 <path id="right" class="st1" d="M94.8,158.9l-41.4-40.3L160.6,8.3c1.3-1.4,3.6-1.4,4.9-0.1L225.9,67c1.4,1.3,1.4,3.6,0.1,4.9
   l-83.9,86.3C129.2,171.5,108,171.7,94.8,158.9z"/>
 </svg>
